<?xml version="1.0" encoding="UTF-8" standalone="no"?>
<!-- Generator: Adobe Illustrator 22.0.1, SVG Export Plug-In . SVG Version: 6.00 Build 0)  -->

<svg
   xmlns:dc="http://purl.org/dc/elements/1.1/"
   xmlns:cc="http://creativecommons.org/ns#"
   xmlns:rdf="http://www.w3.org/1999/02/22-rdf-syntax-ns#"
   xmlns:svg="http://www.w3.org/2000/svg"
   xmlns="http://www.w3.org/2000/svg"
   xmlns:xlink="http://www.w3.org/1999/xlink"
   xmlns:sodipodi="http://sodipodi.sourceforge.net/DTD/sodipodi-0.dtd"
   xmlns:inkscape="http://www.inkscape.org/namespaces/inkscape"
   version="1.1"
   id="clock_layer"
   inkscape:version="0.92.2 5c3e80d, 2017-08-06"
   sodipodi:docname="clock.svg"
   x="0px"
   y="0px"
   viewBox="0 0 1024 600"
   style="enable-background:new 0 0 1024 600;"
   xml:space="preserve"><metadata
     id="metadata82"><rdf:RDF><cc:Work
         rdf:about=""><dc:format>image/svg+xml</dc:format><dc:type
           rdf:resource="http://purl.org/dc/dcmitype/StillImage" /></cc:Work></rdf:RDF></metadata><defs
     id="defs80"><pattern
       patternTransform="matrix(1,0,0,-1.1433715,-3,-37982.725)"
       xlink:href="#rect57_1_"
       id="rect57_2_" /><radialGradient
       gradientUnits="userSpaceOnUse"
       gradientTransform="matrix(1,0,0,0.57168575,-0.55188861,-821.28015)"
       r="468.26001"
       cy="1980.11"
       cx="422.59"
       id="rect40_2_"><stop
         id="stop5"
         style="stop-color:#000000;stop-opacity:0"
         offset="0" /><stop
         id="stop7"
         style="stop-color:#000000;stop-opacity:0"
         offset="0.191" /><stop
         id="stop9"
         style="stop-color:#000000;stop-opacity:0"
         offset="0.4815" /><stop
         id="stop11"
         style="stop-color:#000000"
         offset="1" /></radialGradient></defs><sodipodi:namedview
     pagecolor="#ffffff"
     bordercolor="#666666"
     borderopacity="1"
     objecttolerance="10"
     gridtolerance="10"
     guidetolerance="10"
     inkscape:pageopacity="0"
     inkscape:pageshadow="2"
     inkscape:window-width="3064"
     inkscape:window-height="1751"
     id="namedview78"
     showgrid="false"
     inkscape:zoom="1.28125"
     inkscape:cx="428.17258"
     inkscape:cy="438.0627"
     inkscape:window-x="690"
     inkscape:window-y="147"
     inkscape:window-maximized="0"
     inkscape:current-layer="clock_layer" /><rect
     x="5.5188823"
     height="686.5946"
     width="1024"
     y="-30.991825"
     id="rect55"
     style="stroke-width:1.06928551" /><rect
     x="0"
     height="686.02289"
     width="1024"
     style="fill:url(#rect57_2_);stroke-width:1.06928551"
     y="-32.509518"
     id="rect57" /><rect
     y="-26.556923"
     x="-0.55188864"
     height="686.02289"
     width="1024"
     style="fill:url(#rect40_2_);stroke-width:1.06928551"
     id="rect40_1_" /><text
     id="sensor.time"
     inkscape:label="#text92"
     transform="matrix(0.8191 0 0 1 65.1748 383.8574)"
     style="fill:#00ADEE;enable-background:new    ; font-family:'Helvetica'; font-size:290.3859px;">10:36</text>
<text
     id="sensor.clock_day"
     transform="matrix(1.2003 0 0 1 18.3418 520.5859)"
     style="fill:#808080; font-family:'Helvetica'; font-size:47px;">NedNesDay</text>
<text
     id="sensor.clock_date"
     inkscape:label="#text99"
     transform="matrix(1.2003 0 0 1 18.3418 583.3311)"
     style="fill:#808080;enable-background:new    ; font-family:'Helvetica'; font-size:47px;">November 33</text>
<g
     id="g887"
     transform="translate(476.09756,-9.804878)"><g
       id="right_side_layout"><line
         y2="121.1"
         x2="1009.6"
         y1="121.1"
         x1="819.59998"
         style="fill:none;stroke:#ffffff;stroke-miterlimit:10"
         id="edge_doorbell_top" /><line
         y2="115.1"
         x2="1009.6"
         y1="115.1"
         x1="819.59998"
         style="fill:none;stroke:#ffffff;stroke-miterlimit:10"
         id="edge_snooze_bottom" /><line
         y2="8.1000004"
         x2="1009.6"
         y1="8.1000004"
         x1="819.59998"
         style="fill:none;stroke:#ffffff;stroke-miterlimit:10"
         id="edge_snooze_top" /><line
         y2="228.10001"
         x2="1009.6"
         y1="228.10001"
         x1="819.59998"
         style="fill:none;stroke:#ffffff;stroke-miterlimit:10"
         id="edge_doorbell_bottom" /><line
         y2="234"
         x2="1009.6"
         y1="234"
         x1="819.59998"
         style="fill:none;stroke:#ffffff;stroke-miterlimit:10"
         id="edge_doppler_top" /><line
         y2="341"
         x2="1009.6"
         y1="341"
         x1="819.59998"
         style="fill:none;stroke:#ffffff;stroke-miterlimit:10"
         id="edge_doppler_bottom" /><line
         y2="469"
         x2="1008.7"
         y1="469"
         x1="818.70001"
         style="fill:none;stroke:#ffffff;stroke-miterlimit:10"
         id="edge_radio_top" /><line
         y2="556"
         x2="1008.7"
         y1="556"
         x1="818.70001"
         style="fill:none;stroke:#ffffff;stroke-miterlimit:10"
         id="edge_radio_bottom" /></g></g><rect
     id="sensor.dark_sky_icon"
     x="23.3"
     y="15"
     inkscape:label="#rect395"
     style="fill:#666666;"
     width="70.5"
     height="62.2" /><rect
     id="input_boolean.work_mode"
     x="817.15692"
     y="395.64615"
     inkscape:label="#rect140"
     style="fill:#333333"
     width="190"
     height="105" /><text
     id="sensor.koket_temperature"
     inkscape:label="#text136"
     transform="matrix(1 0 0 1 736.5502 530.4459)"
     style="fill:#808080;enable-background:new    ; font-family:'ArialMT'; font-size:47.57px;">72</text>
<text
     id="sensor.sovrummet_temperature"
     inkscape:label="#text136"
     transform="matrix(1 0 0 1 736.5506 586.0173)"
     style="fill:#808080;enable-background:new    ; font-family:'ArialMT'; font-size:47.57px;">72</text>
<text
     id="first_floor"
     inkscape:label="#text136"
     transform="matrix(0.92,0,0,1,552.4951,529.1865)"
     style="font-size:48px;font-family:Helvetica;fill:#808080;enable-background:new">köket</text>
<text
     id="second_floor"
     inkscape:label="#text136"
     transform="matrix(0.92,0,0,1,552.4951,586.0176)"
     style="font-size:48px;font-family:Helvetica;fill:#808080;enable-background:new">Sovrum</text>
<rect
     id="media_player.alarm_clock"
     x="817.15692"
     y="500.64615"
     inkscape:label="#rect140"
     style="fill:#333333"
     width="190"
     height="83.800003" /><rect
     id="input_boolean.clock_snooze"
     x="817.15692"
     y="290.64615"
     inkscape:label="#rect140"
     style="fill:#333333"
     width="190"
     height="105" /><text
     id="sensor.dark_sky_hourly_summary"
     style="font-style:normal;font-variant:normal;font-weight:normal;font-stretch:normal;font-size:26.66666667px;font-family:Helvetica;-inkscape-font-specification:'Helvetica, Normal';font-variant-ligatures:normal;font-variant-caps:normal;font-variant-numeric:normal;font-feature-settings:normal;text-align:start;writing-mode:lr;text-anchor:start;fill:#808080;"
     x="15.567804"
     y="113.19469">Hell Fire for the next 2 hours</text>
<text
     id="sensor.dark_sky_temperature"
     transform="matrix(1 0 0 1 112.8211 58.1696)"
     style="fill:#808080;font-family:Helvetica;font-size:37.33333333px;-inkscape-font-specification:'Helvetica, Normal';font-weight:normal;font-style:normal;font-stretch:normal;font-variant:normal;text-anchor:start;text-align:start;writing-mode:lr;font-variant-ligatures:normal;font-variant-caps:normal;font-variant-numeric:normal;font-feature-settings:normal;">72</text>
<g
     id="g71"
     transform="translate(0,30)"><g
       id="powered_by_2_"><g
         id="powered_by-2_2_"><g
           id="text857_2_"><path
             style="fill:#00adee"
             d="m 852.4,582 c -0.3,-0.9 -1,-1.7 -1.8,-2.3 -0.8,-0.5 -1.8,-0.8 -2.8,-0.8 -0.7,0 -1.4,0.1 -2.1,0.5 -0.6,0.4 -1.1,0.8 -1.5,1.4 v -1.7 h -1.9 v 1.1 h -9.7 c -0.1,-0.9 -0.9,-1.6 -1.8,-1.6 -1,0 -1.9,0.8 -1.9,1.9 0,1.1 0.8,1.9 1.9,1.9 1,0 1.8,-0.8 1.9,-1.7 h 9.7 v 7.8 h -6.8 c -0.1,-1 -0.9,-1.7 -1.8,-1.7 -1,0 -1.9,0.8 -1.9,1.9 0,1 0.8,1.9 1.9,1.9 0.9,0 1.7,-0.7 1.8,-1.6 h 6.8 v 7.4 h 2.1 v -6.1 c 0.4,0.5 0.8,0.9 1.4,1.2 0.6,0.2 1.3,0.4 1.9,0.4 0.9,0 1.9,-0.3 2.7,-0.8 0.9,-0.5 1.6,-1.3 2,-2.3 0.4,-1.1 0.6,-2.3 0.6,-3.5 -0.1,-1.1 -0.3,-2.2 -0.7,-3.3 z m -21.6,0 c -0.8,0 -1.4,-0.6 -1.4,-1.4 0,-0.8 0.6,-1.4 1.4,-1.4 0.8,0 1.4,0.6 1.4,1.4 0,0.8 -0.7,1.4 -1.4,1.4 z m 2.8,8.2 c -0.8,0 -1.4,-0.6 -1.4,-1.4 0,-0.8 0.6,-1.4 1.4,-1.4 0.8,0 1.4,0.6 1.4,1.4 0.1,0.7 -0.6,1.4 -1.4,1.4 z m 16.4,-1 v 0 c -0.6,0.8 -1.5,1.2 -2.4,1.2 -0.9,0 -1.8,-0.4 -2.3,-1.2 -0.8,-1 -1.1,-2.3 -1.1,-3.6 -0.1,-1.3 0.2,-2.6 1.1,-3.6 0.6,-0.8 1.5,-1.2 2.4,-1.3 0.9,0 1.8,0.4 2.3,1.2 0.7,1 1.1,2.3 1.1,3.6 0,1.3 -0.4,2.6 -1.1,3.7 z"
             id="path40"
             inkscape:connector-curvature="0" /><path
             id="path1976_2_"
             inkscape:connector-curvature="0"
             style="fill:#00adee"
             d="m 865,580.6 c -1.1,-1.1 -2.6,-1.7 -4.2,-1.7 -1.5,0 -2.9,0.5 -4,1.4 -1.4,1.3 -2.1,3.2 -1.9,5.1 -0.1,1.8 0.5,3.6 1.8,4.9 1.1,1.2 2.6,1.8 4.2,1.7 1,0 2,-0.3 2.9,-0.8 0.9,-0.5 1.6,-1.3 2.1,-2.2 0.6,-1.2 0.8,-2.5 0.8,-3.8 0,-1.7 -0.6,-3.3 -1.7,-4.6 z m -1.7,8.4 c -0.6,0.8 -1.6,1.2 -2.6,1.2 -1,0.1 -2,-0.4 -2.7,-1.2 -0.7,-1 -1.1,-2.3 -1.1,-3.6 -0.1,-1.2 0.3,-2.5 1.1,-3.5 0.7,-0.7 1.7,-1.2 2.7,-1.2 1,0 1.9,0.4 2.6,1.2 0.7,1 1.1,2.2 1.1,3.5 0,1.3 -0.4,2.6 -1.1,3.6 z" /><path
             id="path1978_2_"
             inkscape:connector-curvature="0"
             style="fill:#00adee"
             d="m 871.4,591.7 -3.8,-12.4 h 2.2 l 1.9,7.2 0.8,2.7 c 0,-0.1 0.3,-1.1 0.6,-2.6 l 1.9,-7.3 h 2.2 l 1.9,7.2 0.6,2.4 0.8,-2.4 2.2,-7.2 h 2 l -3.8,12.4 h -2.2 l -1.9,-7.4 -0.5,-2.2 -2.6,9.6 z" /><path
             id="path1980_2_"
             inkscape:connector-curvature="0"
             style="fill:#00adee"
             d="m 897.2,585.2 c 0.1,-1.7 -0.4,-3.4 -1.5,-4.7 -1.1,-1.1 -2.6,-1.7 -4.1,-1.7 -1.6,0 -3.1,0.6 -4.2,1.8 -1.2,1.3 -1.8,3.1 -1.7,4.9 -0.1,1.7 0.4,3.4 1.5,4.7 1.1,1.2 2.7,1.8 4.3,1.7 1.3,0 2.5,-0.4 3.6,-1.1 0.9,-0.7 1.6,-1.8 1.9,-2.9 l -2.2,-0.3 c -0.2,0.8 -0.7,1.4 -1.4,1.8 -0.6,0.4 -1.2,0.6 -1.9,0.6 -1,0 -1.9,-0.4 -2.6,-1.2 -0.7,-0.9 -1.1,-2 -1.2,-3.2 h 9.3 z m -9.2,-0.9 c 0,-1 0.4,-1.9 1.2,-2.6 0.6,-0.7 1.5,-1.1 2.4,-1.1 1,0 1.9,0.5 2.6,1.3 0.5,0.7 0.7,1.5 0.8,2.3 z" /><path
             id="path1982_2_"
             inkscape:connector-curvature="0"
             style="fill:#00adee"
             d="m 899.8,591.7 v -12.4 h 1.9 v 1.8 c 0.3,-0.7 0.8,-1.3 1.3,-1.8 0.4,-0.3 0.9,-0.4 1.4,-0.4 0.8,0 1.5,0.3 2.2,0.6 l -0.8,1.9 c -0.5,-0.2 -1,-0.4 -1.5,-0.4 -0.5,0 -0.9,0.1 -1.3,0.4 -0.4,0.3 -0.7,0.7 -0.8,1.2 -0.3,0.8 -0.4,1.6 -0.4,2.4 v 6.5 h -2.1 v 0.2 z" /><path
             id="path1984_2_"
             inkscape:connector-curvature="0"
             style="fill:#00adee"
             d="m 918.6,585.2 c 0.1,-1.7 -0.4,-3.4 -1.5,-4.7 -1.1,-1.1 -2.5,-1.7 -4.1,-1.7 -1.6,-0.1 -3.2,0.6 -4.2,1.8 -1.2,1.3 -1.8,3.1 -1.7,4.9 -0.1,1.7 0.4,3.4 1.5,4.7 1.1,1.2 2.7,1.8 4.4,1.7 1.3,0 2.5,-0.4 3.6,-1.1 0.9,-0.7 1.6,-1.8 1.9,-2.9 l -2.2,-0.3 c -0.2,0.8 -0.7,1.4 -1.4,1.8 -0.5,0.4 -1.2,0.7 -1.9,0.6 -1,0 -1.9,-0.4 -2.6,-1.2 -0.7,-0.9 -1.1,-2 -1.2,-3.2 h 9.3 v -0.4 z m -9.2,-0.9 c 0,-1 0.4,-1.9 1.2,-2.6 0.6,-0.7 1.5,-1.1 2.4,-1.1 1,0 1.9,0.5 2.6,1.3 0.4,0.7 0.7,1.5 0.8,2.3 z" /><path
             id="path1986_2_"
             inkscape:connector-curvature="0"
             style="fill:#00adee"
             d="m 929.2,574.7 v 6.1 c -0.3,-0.6 -0.8,-1 -1.4,-1.3 -0.6,-0.4 -1.3,-0.5 -2.1,-0.5 -1,0 -2,0.3 -2.8,0.8 -0.9,0.5 -1.5,1.3 -1.8,2.3 -0.4,1.1 -0.7,2.2 -0.6,3.3 0,1.1 0.2,2.3 0.6,3.3 0.4,0.9 1.1,1.8 1.9,2.3 0.8,0.5 1.7,0.8 2.7,0.8 1.4,0.1 2.7,-0.6 3.5,-1.8 v 1.8 h 2.1 v -17.1 z m -0.9,14.3 c -1.4,1.7 -5.8,2.6 -5.8,-3.6 -0.1,-1.3 0.3,-2.6 1.1,-3.6 0.5,-0.7 1.4,-1.1 2.3,-1.2 0.9,0 1.9,0.4 2.4,1.2 0.8,1.1 1.1,2.4 1.1,3.7 0.1,1.3 -0.3,2.5 -1.1,3.5 z" /><path
             id="path1988_2_"
             inkscape:connector-curvature="0"
             style="fill:#00adee"
             d="m 951.6,582.8 c -0.3,-0.7 -0.6,-1.4 -1.1,-2.1 -0.4,-0.6 -1,-1 -1.7,-1.3 -0.6,-0.4 -1.4,-0.5 -2.1,-0.5 -1.4,0 -2.6,0.6 -3.5,1.7 v -6.1 h -2.1 v 17.3 h 1.9 v -1.4 c 0.8,1.1 2.1,1.8 3.5,1.8 1.5,0 2.9,-0.7 3.8,-1.8 1.1,-1.4 1.7,-3.2 1.5,-5 0.2,-1 0.1,-1.8 -0.2,-2.6 z m -2.7,6.2 c -0.6,0.7 -1.5,1.1 -2.4,1.2 -1.1,0 -2.1,-0.7 -2.7,-1.7 -0.5,-1 -0.7,-2.1 -0.6,-3.2 -0.1,-1.2 0.3,-2.5 1.1,-3.5 0.6,-0.7 1.5,-1.1 2.4,-1.2 0.9,0 1.7,0.4 2.3,1.2 0.8,1 1.1,2.3 1.1,3.6 -0.1,1.3 -0.4,2.6 -1.2,3.6 z" /><path
             id="path1990_2_"
             inkscape:connector-curvature="0"
             style="fill:#00adee"
             d="m 954.4,596.4 -0.3,-1.9 c 0.4,0.1 0.8,0.1 1.2,0.1 0.4,0 0.8,-0.1 1.2,-0.3 0.3,-0.2 0.5,-0.4 0.6,-0.6 0.3,-0.5 0.5,-1 0.6,-1.5 0,-0.1 0.1,-0.3 0.1,-0.5 l -4.7,-12.4 h 2.3 l 2.6,7.2 c 0.4,1 0.7,1.9 0.9,2.9 0.2,-1 0.5,-1.9 0.9,-2.8 l 2.7,-7.3 h 2 l -4.7,12.7 c -0.3,1 -0.7,1.9 -1.1,2.8 -0.3,0.6 -0.8,1.1 -1.3,1.5 -0.5,0.4 -1.1,0.6 -1.8,0.5 -0.2,-0.1 -0.6,-0.1 -1.2,-0.4 z" /></g></g></g><g
       id="g55"><path
         style="fill:#00adee"
         d="m 825.8,581.4 c -1,0 -1.8,0.8 -1.8,1.7 h -5.1 v 0.4 h 5.1 c 0.1,0.9 0.9,1.6 1.8,1.6 1,0 1.9,-0.8 1.9,-1.9 0,-1 -0.9,-1.8 -1.9,-1.8 z m 0,3.2 c -0.8,0 -1.4,-0.6 -1.4,-1.4 0,-0.8 0.6,-1.4 1.4,-1.4 0.8,0 1.4,0.6 1.4,1.4 0,0.8 -0.6,1.4 -1.4,1.4 z"
         id="path53"
         inkscape:connector-curvature="0" /></g><g
       id="g59"><path
         style="fill:#00adee"
         d="m 837.8,591 c -1,0 -1.7,0.7 -1.8,1.6 h -6.6 l -1.9,-1.9 H 819 v 0.4 h 8.4 l 1.9,1.9 h 6.8 c 0.1,0.9 0.9,1.6 1.8,1.6 1,0 1.9,-0.8 1.9,-1.9 -0.2,-0.9 -1,-1.7 -2,-1.7 z m 0,3.3 c -0.8,0 -1.4,-0.6 -1.4,-1.4 0,-0.8 0.6,-1.4 1.4,-1.4 0.8,0 1.4,0.6 1.4,1.4 0,0.7 -0.6,1.4 -1.4,1.4 z"
         id="path57"
         inkscape:connector-curvature="0" /></g><g
       id="g63"><path
         style="fill:#00adee"
         d="m 837.8,582.8 c -1,0 -1.8,0.7 -1.8,1.7 h -5.5 l -3.3,3.5 h -8.5 v 0.4 h 8.7 l 3.3,-3.5 h 5.3 c 0.1,0.9 0.9,1.6 1.8,1.6 1,0 1.9,-0.8 1.9,-1.9 -0.1,-1 -0.9,-1.8 -1.9,-1.8 z m 0,3.3 c -0.8,0 -1.4,-0.6 -1.4,-1.4 0,-0.8 0.6,-1.4 1.4,-1.4 0.8,0 1.4,0.6 1.4,1.4 0,0.7 -0.6,1.4 -1.4,1.4 z"
         id="path61"
         inkscape:connector-curvature="0" /></g><g
       id="g69"><path
         style="fill:#fff2df"
         d="m 1008,577.8 c 0,0.3 -0.3,0.7 -0.7,0.7 h -3.3 v 11.7 c 0,0.6 -0.5,1 -1,1 h -24.8 c -0.6,0 -1,-0.5 -1,-1 v -11.7 h -3.3 c -0.2,0 -0.3,-0.1 -0.5,-0.2 -0.1,-0.1 -0.2,-0.3 -0.2,-0.5 0,-0.2 0.1,-0.3 0.2,-0.5 l 16.7,-16.7 c 0.3,-0.3 0.7,-0.3 0.9,0 l 8.7,8.7 v -1.7 c 0,-0.3 0.3,-0.6 0.6,-0.6 h 2.8 c 0.3,0 0.6,0.3 0.6,0.6 v 5.1 c 0,0.1 -0.1,0.3 -0.1,0.4 l 4.2,4.2 c 0.1,0.1 0.2,0.3 0.2,0.5 z"
         id="path65"
         inkscape:connector-curvature="0" /><path
         style="fill:#00adee"
         d="m 999.5,582.7 c -0.5,0 -0.9,0.3 -1.1,0.8 h -3.9 l 2.6,-2.5 v -2.6 l 1.8,-1.7 c 0.2,0.1 0.4,0.2 0.6,0.2 0.6,0 1.2,-0.5 1.2,-1.2 0,-0.6 -0.5,-1.2 -1.2,-1.2 -0.7,0 -1.2,0.5 -1.2,1.2 0,0.2 0,0.3 0.1,0.4 l -1.3,1.2 v -3.9 c 0.5,-0.2 0.8,-0.6 0.8,-1.1 0,-0.6 -0.5,-1.2 -1.2,-1.2 -0.6,0 -1.2,0.5 -1.2,1.2 0,0.5 0.3,0.9 0.8,1.1 v 3.9 l -1.2,-1.2 c 0.1,-0.2 0.1,-0.3 0.1,-0.5 0,-0.6 -0.5,-1.2 -1.2,-1.2 -0.6,0 -1.2,0.5 -1.2,1.2 0,0.6 0.5,1.2 1.2,1.2 0.2,0 0.4,0 0.5,-0.1 l 1.8,1.7 v 2.3 l -2.4,2.3 -0.1,-1.8 c 0.5,-0.2 0.8,-0.6 0.8,-1.1 0,-0.6 -0.5,-1.2 -1.2,-1.2 -0.6,0 -1.2,0.5 -1.2,1.2 0,0.5 0.3,0.9 0.8,1.1 l 0.1,2.5 -2.3,2.2 v -12.5 l 2,-2 c 0.1,0 0.3,0.1 0.4,0.1 0.6,0 1.2,-0.5 1.2,-1.2 0,-0.6 -0.5,-1.2 -1.2,-1.2 -0.6,0 -1.2,0.5 -1.2,1.2 0,0.2 0.1,0.4 0.2,0.6 l -1.8,1.8 -1.7,-1.8 c 0.1,-0.2 0.1,-0.3 0.1,-0.5 0,-0.6 -0.5,-1.2 -1.2,-1.2 -0.6,0 -1.2,0.5 -1.2,1.2 0,0.6 0.5,1.2 1.2,1.2 0.2,0 0.4,0 0.5,-0.1 l 1.9,2 v 8.7 l -3.2,-3.1 v -2.5 c 0.5,-0.2 0.8,-0.6 0.8,-1.1 0,-0.6 -0.5,-1.2 -1.2,-1.2 -0.6,0 -1.2,0.5 -1.2,1.2 0,0.5 0.3,0.9 0.8,1.1 v 1.7 l -2.6,-2.5 v -2.4 c 0.5,-0.2 0.8,-0.6 0.8,-1.1 0,-0.6 -0.5,-1.2 -1.2,-1.2 -0.6,0 -1.2,0.5 -1.2,1.2 0,0.5 0.3,0.9 0.8,1.1 v 2.7 l 2.9,2.8 h -1.9 c -0.2,-0.5 -0.6,-0.8 -1.1,-0.8 -0.6,0 -1.2,0.5 -1.2,1.2 0,0.6 0.5,1.2 1.2,1.2 0.5,0 0.9,-0.3 1.1,-0.8 h 2.7 l 3.6,3.5 v 6.7 L 988,588 v -2.5 c 0.5,-0.2 0.8,-0.6 0.8,-1.1 0,-0.6 -0.5,-1.2 -1.2,-1.2 -0.6,0 -1.2,0.5 -1.2,1.2 0,0.5 0.3,0.9 0.8,1.1 v 1.8 l -3.1,-3.1 c 0,-0.1 0.1,-0.3 0.1,-0.4 0,-0.6 -0.5,-1.2 -1.2,-1.2 -0.6,0 -1.2,0.5 -1.2,1.2 0,0.6 0.5,1.2 1.2,1.2 0.2,0 0.4,-0.1 0.6,-0.2 l 3.1,3 h -1.9 c -0.2,-0.5 -0.6,-0.8 -1.1,-0.8 -0.6,0 -1.2,0.5 -1.2,1.2 0,0.6 0.5,1.2 1.2,1.2 0.5,0 0.9,-0.3 1.1,-0.8 h 2.6 l 2.8,2.8 3,-2.8 h 2.5 c 0.1,0.5 0.6,0.9 1.1,0.9 0.6,0 1.2,-0.5 1.2,-1.2 0,-0.6 -0.5,-1.2 -1.2,-1.2 -0.5,0 -0.9,0.3 -1.1,0.7 h -2.9 l -2.4,2.2 v -3 l 2.8,-2.7 h 4.6 c 0.2,0.5 0.6,0.8 1.1,0.8 0.6,0 1.2,-0.5 1.2,-1.2 0.5,-0.7 0,-1.2 -0.6,-1.2 z m 0,-7.6 c 0.3,0 0.6,0.3 0.6,0.6 0,0.3 -0.3,0.6 -0.6,0.6 -0.3,0 -0.6,-0.3 -0.6,-0.6 0,-0.3 0.3,-0.6 0.6,-0.6 z m -5.4,1.1 c -0.3,0 -0.6,-0.3 -0.6,-0.6 0,-0.3 0.3,-0.6 0.6,-0.6 0.3,0 0.6,0.3 0.6,0.6 -0.1,0.4 -0.3,0.6 -0.6,0.6 z m 2.1,-3.9 c 0,-0.3 0.3,-0.6 0.6,-0.6 0.3,0 0.6,0.3 0.6,0.6 0,0.3 -0.3,0.6 -0.6,0.6 -0.3,0 -0.6,-0.3 -0.6,-0.6 z M 993,580 c 0,-0.3 0.3,-0.6 0.6,-0.6 0.3,0 0.6,0.3 0.6,0.6 0,0.3 -0.3,0.6 -0.6,0.6 -0.3,0 -0.6,-0.3 -0.6,-0.6 z m -5.8,-9.6 c 0,-0.3 0.3,-0.6 0.6,-0.6 0.3,0 0.6,0.3 0.6,0.6 0,0.3 -0.3,0.6 -0.6,0.6 -0.3,-0.1 -0.6,-0.3 -0.6,-0.6 z m -1.1,5.1 c 0,-0.3 0.3,-0.6 0.6,-0.6 0.3,0 0.6,0.3 0.6,0.6 0,0.3 -0.3,0.6 -0.6,0.6 -0.3,0 -0.6,-0.3 -0.6,-0.6 z m -3.4,-3.2 c 0,-0.3 0.3,-0.6 0.6,-0.6 0.3,0 0.6,0.3 0.6,0.6 0,0.3 -0.3,0.6 -0.6,0.6 -0.3,0 -0.6,-0.3 -0.6,-0.6 z m 0.1,7.6 c -0.3,0 -0.6,-0.3 -0.6,-0.6 0,-0.3 0.3,-0.6 0.6,-0.6 0.3,0 0.6,0.3 0.6,0.6 0,0.3 -0.3,0.6 -0.6,0.6 z m 4.5,4.4 c 0,-0.3 0.3,-0.6 0.6,-0.6 0.3,0 0.6,0.3 0.6,0.6 0,0.3 -0.3,0.6 -0.6,0.6 -0.3,0 -0.6,-0.2 -0.6,-0.6 z m -3.3,4.4 c -0.3,0 -0.6,-0.3 -0.6,-0.6 0,-0.3 0.3,-0.6 0.6,-0.6 0.3,0 0.6,0.3 0.6,0.6 0,0.3 -0.3,0.6 -0.6,0.6 z m 13.2,-1.1 c 0.3,0 0.6,0.3 0.6,0.6 0,0.3 -0.3,0.6 -0.6,0.6 -0.3,0 -0.6,-0.3 -0.6,-0.6 0.1,-0.3 0.3,-0.6 0.6,-0.6 z m -3.8,-17.8 c 0.3,0 0.6,0.3 0.6,0.6 0,0.3 -0.3,0.6 -0.6,0.6 -0.3,0 -0.6,-0.3 -0.6,-0.6 0,-0.3 0.2,-0.6 0.6,-0.6 z m -10.1,14.5 c -0.3,0 -0.6,-0.3 -0.6,-0.6 0,-0.3 0.3,-0.6 0.6,-0.6 0.3,0 0.6,0.3 0.6,0.6 0,0.3 -0.3,0.6 -0.6,0.6 z m 16.2,0.1 c -0.3,0 -0.6,-0.3 -0.6,-0.6 0,-0.3 0.3,-0.6 0.6,-0.6 0.3,0 0.6,0.3 0.6,0.6 0,0.3 -0.3,0.6 -0.6,0.6 z"
         id="path67"
         inkscape:connector-curvature="0" /></g></g><text
     id="sensor.clock_stacey_alarm_time"
     style="font-size:59.64450073px;font-family:Helvetica;fill:#00adee"
     x="835.15405"
     y="265.00394">00:00</text>
<rect
     id="floorplan.clock_button"
     x="817.15692"
     y="185.64615"
     inkscape:label="#rect140"
     width="190"
     height="105" /></svg>