<?xml version="1.0" encoding="UTF-8" standalone="no"?>
<!-- Created with Inkscape (http://www.inkscape.org/) -->

<svg
   xmlns:dc="http://purl.org/dc/elements/1.1/"
   xmlns:cc="http://creativecommons.org/ns#"
   xmlns:rdf="http://www.w3.org/1999/02/22-rdf-syntax-ns#"
   xmlns:svg="http://www.w3.org/2000/svg"
   xmlns="http://www.w3.org/2000/svg"
   xmlns:xlink="http://www.w3.org/1999/xlink"
   xmlns:sodipodi="http://sodipodi.sourceforge.net/DTD/sodipodi-0.dtd"
   xmlns:inkscape="http://www.inkscape.org/namespaces/inkscape"
   width="210mm"
   height="297mm"
   viewBox="0 0 210 297"
   version="1.1"
   id="svg8"
   inkscape:version="0.92.2 5c3e80d, 2017-08-06"
   sodipodi:docname="drawing.svg">
  <defs
     id="defs2" />
  <sodipodi:namedview
     id="base"
     pagecolor="#ffffff"
     bordercolor="#666666"
     borderopacity="1.0"
     inkscape:pageopacity="0.0"
     inkscape:pageshadow="2"
     inkscape:zoom="0.7"
     inkscape:cx="-70.445954"
     inkscape:cy="582.61351"
     inkscape:document-units="mm"
     inkscape:current-layer="layer1"
     showgrid="false"
     inkscape:window-width="3840"
     inkscape:window-height="2103"
     inkscape:window-x="0"
     inkscape:window-y="0"
     inkscape:window-maximized="1" />
  <metadata
     id="metadata5">
    <rdf:RDF>
      <cc:Work
         rdf:about="">
        <dc:format>image/svg+xml</dc:format>
        <dc:type
           rdf:resource="http://purl.org/dc/dcmitype/StillImage" />
        <dc:title />
      </cc:Work>
    </rdf:RDF>
  </metadata>
  <pattern
     y="600"
     width="5"
     height="5"
     patternUnits="userSpaceOnUse"
     id="rect57_1_"
     viewBox="0 -5 5 5"
     style="overflow:visible;">
    <g
       id="g36">
      <rect
         y="-5"
         style="fill:none;"
         width="5"
         height="5"
         id="rect5" />
      <g
         id="g34">
        <rect
           y="-5"
           style="fill:none;"
           width="5"
           height="5"
           id="rect7" />
        <g
           id="g32">
          <rect
             y="-5"
             style="fill:none;"
             width="5"
             height="5"
             id="rect9" />
          <rect
             id="rect43_2_"
             y="-5"
             style="fill:none;"
             width="5"
             height="5" />
          <g
             id="g29">
            <g
               id="g27">
              <g
                 id="g25">
                <defs
                   id="defs13">
                  <path
                     id="SVGID_1_"
                     d="M4.9-3C4.9-3,4.8-3,4.9-3H4.3v-1.7c0-0.1,0-0.1-0.1-0.1H0.8c-0.1,0-0.1,0-0.1,0.1V-3H0.2            c0,0-0.1,0-0.1,0.1l0,0c0,0,0,0,0,0.1l0,0l2.3,2.2c0.1,0.1,0.1,0.1,0.2,0l1.1-1.1l0.1-0.1v0.2c0,0.1,0,0.1,0.1,0.1h0.3            c0.1,0,0.1,0,0.1-0.1v-0.7v-0.1c0.2-0.1,0.3-0.3,0.4-0.4v-0.1C4.8-2.9,4.9-2.9,4.9-3z" />
                </defs>
                <clipPath
                   id="SVGID_2_">
                  <use
                     xlink:href="#SVGID_1_"
                     style="overflow:visible;"
                     id="use15" />
                </clipPath>
                <g
                   id="g47_2_"
                   style="clip-path:url(#SVGID_2_);"
                   clip-path="url(#SVGID_2_)">
                  <radialGradient
                     id="rect45_3_"
                     cx="-83566.7813"
                     cy="-97872.6094"
                     r="4.43"
                     gradientTransform="matrix(0.56 0 0 0.56 46707.2891 54684.4805)"
                     gradientUnits="userSpaceOnUse">
                    <stop
                       offset="0"
                       style="stop-color:#17426C"
                       id="stop18" />
                    <stop
                       offset="1"
                       style="stop-color:#050F1A"
                       id="stop20" />
                  </radialGradient>
                  <rect
                     id="rect45_2_"
                     y="-5"
                     style="fill:url(#rect45_3_);"
                     width="4.9"
                     height="4.9" />
                </g>
              </g>
            </g>
          </g>
          <path
             id="path367_2_"
             style="fill:#19476D;"
             d="M3.6-3.2c0.1,0,0.2,0.1,0.2,0.2l0,0c0,0.1-0.1,0.2-0.2,0.2l0,0        C3.5-2.8,3.4-2.9,3.4-3l0,0l0,0C3.4-3.1,3.5-3.2,3.6-3.2z M1.4-3.2c0.1,0,0.2,0.1,0.2,0.2l0,0l0,0c0,0.1-0.1,0.2-0.2,0.2        S1.2-2.9,1.2-3S1.3-3.2,1.4-3.2L1.4-3.2z M2.3-4.1L1.6-3.4C1.4-3.5,1.1-3.4,1-3.2s0,0.5,0.2,0.6c0.1,0.1,0.3,0.1,0.5,0        c0.1,0,0.2-0.1,0.2-0.2c0-0.1,0-0.3,0-0.4l0.4-0.5v1.5C2.1-2.1,2-1.9,2-1.8s0,0.3,0.1,0.4c0.2,0.2,0.5,0.2,0.7,0l0,0l0,0        C2.9-1.4,3-1.6,3-1.7C3-1.9,2.9-2,2.7-2.1c0-0.4,0-1.5,0-1.5l0.4,0.5c0,0.1,0.1,0.4,0.3,0.5s0.5,0,0.6-0.2        c0.1-0.1,0.1-0.3,0-0.4C3.9-3.4,3.7-3.5,3.4-3.4L2.7-4.1v-0.6H2.3V-4.1z M2.7-1.7c0,0.1-0.1,0.2-0.2,0.2c-0.1,0-0.2-0.1-0.2-0.2        l0,0c0-0.1,0.1-0.2,0.2-0.2C2.6-1.9,2.7-1.8,2.7-1.7z" />
        </g>
      </g>
    </g>
  </pattern>
  <g
     inkscape:label="Layer 1"
     inkscape:groupmode="layer"
     id="layer1">
    <rect
       style="fill:#cccccc;fill-opacity:1;stroke-width:0.26458332"
       id="rect846"
       width="77.485123"
       height="57.452377"
       x="27.59226"
       y="115.57143"
       ry="2.5259664" />
  </g>
</svg>
