<?xml version="1.0" encoding="UTF-8" standalone="no"?>
<svg
   xmlns:dc="http://purl.org/dc/elements/1.1/"
   xmlns:cc="http://creativecommons.org/ns#"
   xmlns:rdf="http://www.w3.org/1999/02/22-rdf-syntax-ns#"
   xmlns:svg="http://www.w3.org/2000/svg"
   xmlns="http://www.w3.org/2000/svg"
   xmlns:sodipodi="http://sodipodi.sourceforge.net/DTD/sodipodi-0.dtd"
   xmlns:inkscape="http://www.inkscape.org/namespaces/inkscape"
   id="Layer_2"
   data-name="Layer 2"
   viewBox="0 0 206.4 105.48"
   version="1.1"
   sodipodi:docname="work_off.svg"
   inkscape:version="0.92.2 (5c3e80d, 2017-08-06)">
  <metadata
     id="metadata45">
    <rdf:RDF>
      <cc:Work
         rdf:about="">
        <dc:format>image/svg+xml</dc:format>
        <dc:type
           rdf:resource="http://purl.org/dc/dcmitype/StillImage" />
        <dc:title>No Shcool Tom</dc:title>
      </cc:Work>
    </rdf:RDF>
  </metadata>
  <sodipodi:namedview
     pagecolor="#ffffff"
     bordercolor="#666666"
     borderopacity="1"
     objecttolerance="10"
     gridtolerance="10"
     guidetolerance="10"
     inkscape:pageopacity="0"
     inkscape:pageshadow="2"
     inkscape:window-width="1829"
     inkscape:window-height="1079"
     id="namedview43"
     showgrid="false"
     inkscape:zoom="3.9603462"
     inkscape:cx="77.940333"
     inkscape:cy="49.491086"
     inkscape:window-x="797"
     inkscape:window-y="544"
     inkscape:window-maximized="0"
     inkscape:current-layer="Layer_2" />
  <defs
     id="defs4">
    <style
       id="style2">.school-1{fill:#e7376b;}</style>
  </defs>
  <title
     id="title6">No Shcool Tom</title>
  <rect
     width="206.39999"
     height="105.48"
     id="rect8"
     x="0.25250316"
     y="3.0429401e-006" />
  <path
     class="school-1"
     d="m 8.0275089,10.502351 h 1.88 l 15.3600011,24.25 h 0.07 v -24.25 h 1.5 v 26.44 h -1.77 l -15.4700011,-24.44 h -0.07 v 24.44 h -1.5 z"
     id="path10"
     inkscape:connector-curvature="0"
     style="fill:#e7376b" />
  <path
     class="school-1"
     d="m 52.662504,23.974854 a 18,18 0 0 1 -0.79,5.41 13.33,13.33 0 0 1 -2.26,4.41 10.91,10.91 0 0 1 -17,0 13.35,13.35 0 0 1 -2.3,-4.41 19.26,19.26 0 0 1 0,-10.85 13.2,13.2 0 0 1 2.27,-4.4 10.66,10.66 0 0 1 3.64,-3 10.91,10.91 0 0 1 4.89,-1.07 10.46,10.46 0 0 1 8.5,4 13.18,13.18 0 0 1 2.26,4.4 18,18 0 0 1 0.79,5.51 z m -21.63,0 a 16.35,16.35 0 0 0 0.68,4.81 12,12 0 0 0 2,3.94 9.77,9.77 0 0 0 3.14,2.66 8.87,8.87 0 0 0 4.26,1 8.77,8.77 0 0 0 4.24,-1 9.7,9.7 0 0 0 3.15,-2.69 12.06,12.06 0 0 0 2,-3.94 17.39,17.39 0 0 0 0,-9.63 12.16,12.16 0 0 0 -2,-3.94 9.67,9.67 0 0 0 -3.15,-2.68 8.77,8.77 0 0 0 -4.24,-1 8.87,8.87 0 0 0 -4.26,1 9.74,9.74 0 0 0 -3.17,2.68 12.14,12.14 0 0 0 -2,3.94 16.42,16.42 0 0 0 -0.65,4.85 z"
     id="path12"
     inkscape:connector-curvature="0"
     style="fill:#e7376b" />
  <path
     class="school-1"
     d="m 6.4201294,65.948196 v -1.4 H 24.97013 v 1.4 h -8.55 v 24.93 h -1.49 v -24.93 z"
     id="path26"
     inkscape:connector-curvature="0"
     style="fill:#e7376b" />
  <path
     class="school-1"
     d="m 48.58013,77.758196 a 18.28,18.28 0 0 1 -0.78,5.41 13.18,13.18 0 0 1 -2.26,4.38 10.44,10.44 0 0 1 -8.46,4 10.52,10.52 0 0 1 -8.5,-4 13.35,13.35 0 0 1 -2.25,-4.38 19.12,19.12 0 0 1 0,-10.81 13.35,13.35 0 0 1 2.25,-4.38 10.84,10.84 0 0 1 17,0 13.18,13.18 0 0 1 2.26,4.38 18.27,18.27 0 0 1 0.74,5.4 z m -21.54,0 a 16.62,16.62 0 0 0 0.68,4.8 12,12 0 0 0 2,3.92 9.79,9.79 0 0 0 3.15,2.68 8.9,8.9 0 0 0 4.24,1 8.79,8.79 0 0 0 4.22,-1 9.76,9.76 0 0 0 3.14,-2.68 12.24,12.24 0 0 0 2,-3.92 17.25,17.25 0 0 0 0,-9.59 12.14,12.14 0 0 0 -2,-3.92 9.76,9.76 0 0 0 -3.14,-2.68 8.79,8.79 0 0 0 -4.22,-1 8.9,8.9 0 0 0 -4.24,1 9.79,9.79 0 0 0 -3.15,2.68 11.94,11.94 0 0 0 -2,3.92 16.6,16.6 0 0 0 -0.68,4.79 z"
     id="path28"
     inkscape:connector-curvature="0"
     style="fill:#e7376b" />
  <path
     class="school-1"
     d="m 51.77013,64.548196 h 2.13 l 9.47,24.52 h 0.06 l 9.36,-24.52 h 2.14 v 26.33 h -1.49 v -24.34 h -0.07 l -9.22,24.34 h -1.5 l -9.32,-24.34 h -0.11 v 24.34 h -1.45 z"
     id="path30"
     inkscape:connector-curvature="0"
     style="fill:#e7376b" />
  <path
     class="school-1"
     d="m 101.15013,77.758196 a 18.28,18.28 0 0 1 -0.78,5.41 13.18,13.18 0 0 1 -2.26,4.38 10.44,10.44 0 0 1 -8.46,4 10.52,10.52 0 0 1 -8.5,-4 13.35,13.35 0 0 1 -2.25,-4.38 19.12,19.12 0 0 1 0,-10.81 13.35,13.35 0 0 1 2.25,-4.38 10.84,10.84 0 0 1 17,0 13.18,13.18 0 0 1 2.26,4.38 18.27,18.27 0 0 1 0.74,5.4 z m -21.54,0 a 16.62,16.62 0 0 0 0.68,4.8 12,12 0 0 0 2,3.92 9.79,9.79 0 0 0 3.15,2.68 8.9,8.9 0 0 0 4.24,1 8.79,8.79 0 0 0 4.22,-1 9.76,9.76 0 0 0 3.14,-2.68 12.24,12.24 0 0 0 2,-3.92 17.25,17.25 0 0 0 0,-9.59 12.14,12.14 0 0 0 -2,-3.92 9.76,9.76 0 0 0 -3.14,-2.68 8.79,8.79 0 0 0 -4.22,-1 8.9,8.9 0 0 0 -4.24,1 9.79,9.79 0 0 0 -3.22,2.63 11.94,11.94 0 0 0 -2,3.92 16.6,16.6 0 0 0 -0.61,4.84 z"
     id="path32"
     inkscape:connector-curvature="0"
     style="fill:#e7376b" />
  <path
     class="school-1"
     d="m 104.34013,64.548196 h 10.1 a 12.38,12.38 0 0 1 3,0.35 6.87,6.87 0 0 1 2.44,1.15 5.31,5.31 0 0 1 1.64,2.08 7.6,7.6 0 0 1 0.6,3.21 7.22,7.22 0 0 1 -1.38,4.48 5.86,5.86 0 0 1 -3.81,2.26 v 0.08 a 5.33,5.33 0 0 1 2.63,1 4.65,4.65 0 0 1 1.44,1.8 7.65,7.65 0 0 1 0.61,2.36 24.78,24.78 0 0 1 0.14,2.58 v 1.51 c 0,0.49 0,1 0.06,1.38 a 8,8 0 0 0 0.22,1.2 3.08,3.08 0 0 0 0.43,0.93 h -1.66 a 5.06,5.06 0 0 1 -0.58,-2.16 c 0,-0.82 -0.05,-1.68 -0.05,-2.56 0,-0.88 0,-1.77 -0.1,-2.64 a 6.06,6.06 0 0 0 -0.65,-2.34 4,4 0 0 0 -1.71,-1.66 7.08,7.08 0 0 0 -3.31,-0.63 h -8.61 v 12 h -1.49 z m 10.1,12.94 a 8.08,8.08 0 0 0 2.46,-0.35 4.91,4.91 0 0 0 1.95,-1.09 5.16,5.16 0 0 0 1.29,-1.88 7,7 0 0 0 0.48,-2.72 5.74,5.74 0 0 0 -0.51,-2.53 4.72,4.72 0 0 0 -1.36,-1.71 5.33,5.33 0 0 0 -2,-1 8.93,8.93 0 0 0 -2.34,-0.3 h -8.61 v 11.58 z"
     id="path34"
     inkscape:connector-curvature="0"
     style="fill:#e7376b" />
  <path
     class="school-1"
     d="m 125.70013,64.548196 h 10.11 a 12.3,12.3 0 0 1 3,0.35 6.84,6.84 0 0 1 2.41,1.15 5.31,5.31 0 0 1 1.64,2.08 7.61,7.61 0 0 1 0.59,3.21 7.21,7.21 0 0 1 -1.37,4.48 5.91,5.91 0 0 1 -3.81,2.26 v 0.08 a 5.29,5.29 0 0 1 2.62,1 4.58,4.58 0 0 1 1.45,1.8 8,8 0 0 1 0.61,2.36 24.76,24.76 0 0 1 0.13,2.58 v 1.51 a 11.89,11.89 0 0 0 0.14,1.35 6.93,6.93 0 0 0 0.22,1.2 2.85,2.85 0 0 0 0.42,0.93 h -1.66 a 5.21,5.21 0 0 1 -0.52,-2.16 c 0,-0.82 0,-1.68 0,-2.56 0,-0.88 0,-1.77 -0.11,-2.64 a 5.88,5.88 0 0 0 -0.64,-2.34 4,4 0 0 0 -1.71,-1.66 7.11,7.11 0 0 0 -3.31,-0.63 h -8.69 v 12 h -1.49 z m 10.11,12.94 a 8.13,8.13 0 0 0 2.46,-0.35 4.91,4.91 0 0 0 1.95,-1.09 5.16,5.16 0 0 0 1.29,-1.88 7.2,7.2 0 0 0 0.47,-2.72 5.74,5.74 0 0 0 -0.51,-2.53 4.8,4.8 0 0 0 -1.35,-1.71 5.33,5.33 0 0 0 -2,-1 9,9 0 0 0 -2.34,-0.3 h -8.56 v 11.58 z"
     id="path36"
     inkscape:connector-curvature="0"
     style="fill:#e7376b" />
  <path
     class="school-1"
     d="m 169.01013,77.758196 a 18.28,18.28 0 0 1 -0.78,5.41 13.35,13.35 0 0 1 -2.25,4.38 11.16,11.16 0 0 1 -13.33,2.93 10.47,10.47 0 0 1 -3.63,-2.93 13.37,13.37 0 0 1 -2.26,-4.38 19.12,19.12 0 0 1 0,-10.81 13.37,13.37 0 0 1 2.26,-4.38 10.47,10.47 0 0 1 3.63,-2.93 10.83,10.83 0 0 1 13.33,2.93 13.35,13.35 0 0 1 2.24,4.33 18.27,18.27 0 0 1 0.79,5.45 z m -21.53,0 a 16.62,16.62 0 0 0 0.67,4.8 12.24,12.24 0 0 0 2,3.92 9.72,9.72 0 0 0 3.16,2.68 9.53,9.53 0 0 0 8.46,0 9.86,9.86 0 0 0 3.14,-2.68 12.22,12.22 0 0 0 2,-3.92 17.25,17.25 0 0 0 0,-9.59 12.12,12.12 0 0 0 -2,-3.92 9.86,9.86 0 0 0 -3.14,-2.68 9.53,9.53 0 0 0 -8.46,0 9.72,9.72 0 0 0 -3.16,2.68 12.14,12.14 0 0 0 -2,3.92 16.6,16.6 0 0 0 -0.67,4.79 z"
     id="path38"
     inkscape:connector-curvature="0"
     style="fill:#e7376b" />
  <path
     class="school-1"
     d="m 169.86013,64.548196 h 1.53 l 6.31,24.59 h 0.06 l 6.46,-24.59 h 1.87 l 6.51,24.59 h 0.07 l 6.21,-24.59 h 1.59 l -6.95,26.33 h -1.7 l -6.7,-24.93 h -0.06 l -6.55,24.93 h -1.66 z"
     id="path40"
     inkscape:connector-curvature="0"
     style="fill:#e7376b" />
  <text
     xml:space="preserve"
     style="font-style:normal;font-variant:normal;font-weight:normal;font-stretch:normal;font-size:40px;line-height:1.25;font-family:Corbel;-inkscape-font-specification:'Corbel, Normal';font-variant-ligatures:normal;font-variant-caps:normal;font-variant-numeric:normal;font-feature-settings:normal;text-align:start;letter-spacing:0px;word-spacing:0px;writing-mode:lr;text-anchor:start;fill:#e7376b;fill-opacity:1;stroke:none;"
     x="61.065716"
     y="37.071667"
     id="text854"><tspan
       sodipodi:role="line"
       id="tspan852"
       x="61.065716"
       y="37.071667">WORK</tspan></text>
</svg>
